<svg id="图层_1" data-name="图层 1" xmlns="http://www.w3.org/2000/svg" xmlns:xlink="http://www.w3.org/1999/xlink" viewBox="0 0 95.75 68.79"><defs><radialGradient id="未命名的渐变_4" cx="26.79" cy="51.95" r="24.31" gradientTransform="translate(2.35 0.52)" gradientUnits="userSpaceOnUse"><stop offset="0" stop-color="#fff"/><stop offset="0.9" stop-color="#c7b299"/></radialGradient><radialGradient id="未命名的渐变_4-2" cx="47.68" cy="30.25" r="24.31" gradientTransform="matrix(1, 0, 0, 1, 0, 0)" xlink:href="#未命名的渐变_4"/><radialGradient id="未命名的渐变_4-3" cx="12.22" cy="46.05" r="24.31" gradientTransform="matrix(1, 0, 0, -1, 59.02, 98.8)" xlink:href="#未命名的渐变_4"/></defs><title>icon</title><rect x="12.36" y="22.47" width="33.57" height="60" rx="2" transform="translate(-20.55 -2.14) rotate(-23.08)" style="stroke:#000;stroke-miterlimit:10;stroke-width:0.5px;fill:url(#未命名的渐变_4)"/><polygon points="8.14 19.5 20.91 25.93 37.5 41.26 34.99 44.28 16.84 30.84 8.14 19.5" style="fill:#e6e6e6;stroke:#000;stroke-miterlimit:10;stroke-width:0.5px"/><line x1="17.78" y1="27.48" x2="36.24" y2="42.77" style="fill:none;stroke:#000;stroke-miterlimit:10;stroke-width:0.25px"/><rect x="35.7" y="60.1" width="7.76" height="2.52" transform="translate(-35.36 36.01) rotate(-51.21)" style="fill:gray;stroke:#000;stroke-miterlimit:10;stroke-width:0.5px"/><rect x="41.99" y="60.88" width="2.84" height="7.33" transform="translate(-36.31 39.04) rotate(-50.37)" style="fill:#e6e6e6;stroke:#000;stroke-miterlimit:10;stroke-width:0.5px"/><circle cx="43.52" cy="48.79" r="1.8" style="fill:#998675;stroke:#000;stroke-miterlimit:10;stroke-width:0.5px"/><polygon points="28.99 10.61 24.79 24.28 24.35 46.86 28.27 47.15 31.14 24.75 28.99 10.61" style="fill:#e6e6e6;stroke:#000;stroke-miterlimit:10;stroke-width:0.5px"/><line x1="28.07" y1="23.09" x2="26.31" y2="47" style="fill:none;stroke:#000;stroke-miterlimit:10;stroke-width:0.25px"/><rect x="27.26" y="62.2" width="2.52" height="7.76" transform="translate(-42.13 70.91) rotate(-84.96)" style="fill:gray;stroke:#000;stroke-miterlimit:10;stroke-width:0.5px"/><rect x="26.75" y="67.37" width="2.84" height="7.33" transform="translate(48.73 126.19) rotate(-175.79)" style="fill:#e6e6e6;stroke:#000;stroke-miterlimit:10;stroke-width:0.5px"/><circle cx="25.62" cy="56.42" r="1.8" style="fill:#998675;stroke:#000;stroke-miterlimit:10;stroke-width:0.5px"/><rect x="30.9" y="0.25" width="33.57" height="60" rx="2" style="stroke:#000;stroke-miterlimit:10;stroke-width:0.5px;fill:url(#未命名的渐变_4-2)"/><polygon points="36.45 8.94 45.67 19.87 54.93 40.46 51.43 42.27 40.01 22.78 36.45 8.94" style="fill:#e6e6e6;stroke:#000;stroke-miterlimit:10;stroke-width:0.5px"/><line x1="42.18" y1="20.06" x2="53.18" y2="41.37" style="fill:none;stroke:#000;stroke-miterlimit:10;stroke-width:0.25px"/><rect x="52.23" y="59.03" width="7.76" height="2.52" transform="translate(-24.11 15.81) rotate(-28.13)" style="fill:gray;stroke:#000;stroke-miterlimit:10;stroke-width:0.5px"/><rect x="56.96" y="61.05" width="2.84" height="7.33" transform="translate(-25.49 16.2) rotate(-27.29)" style="fill:#e6e6e6;stroke:#000;stroke-miterlimit:10;stroke-width:0.5px"/><circle cx="57.51" cy="49.76" r="1.8" style="fill:#998675;stroke:#000;stroke-miterlimit:10;stroke-width:0.5px"/><polygon points="59.11 8.94 49.89 19.87 40.63 40.46 44.13 42.27 55.55 22.78 59.11 8.94" style="fill:#e6e6e6;stroke:#000;stroke-miterlimit:10;stroke-width:0.5px"/><line x1="53.38" y1="20.06" x2="42.38" y2="41.37" style="fill:none;stroke:#000;stroke-miterlimit:10;stroke-width:0.25px"/><rect x="42.82" y="56.41" width="2.52" height="7.76" transform="translate(-32.19 52.98) rotate(-61.87)" style="fill:gray;stroke:#000;stroke-miterlimit:10;stroke-width:0.5px"/><rect x="40.4" y="61.05" width="2.84" height="7.33" transform="translate(46.99 123.64) rotate(-152.71)" style="fill:#e6e6e6;stroke:#000;stroke-miterlimit:10;stroke-width:0.5px"/><circle cx="38.05" cy="49.76" r="1.8" style="fill:#998675;stroke:#000;stroke-miterlimit:10;stroke-width:0.5px"/><rect x="54.45" y="22.76" width="33.57" height="60" rx="2" transform="translate(113.77 111.45) rotate(-156.92)" style="stroke:#000;stroke-miterlimit:10;stroke-width:0.5px;fill:url(#未命名的渐变_4-3)"/><polygon points="87.61 19.79 74.84 26.23 58.25 41.55 60.76 44.58 78.9 31.13 87.61 19.79" style="fill:#e6e6e6;stroke:#000;stroke-miterlimit:10;stroke-width:0.5px"/><line x1="77.97" y1="27.77" x2="59.5" y2="43.06" style="fill:none;stroke:#000;stroke-miterlimit:10;stroke-width:0.25px"/><rect x="59.54" y="57.77" width="2.52" height="7.76" transform="translate(-27.53 33.92) rotate(-38.79)" style="fill:gray;stroke:#000;stroke-miterlimit:10;stroke-width:0.5px"/><rect x="55.56" y="61.17" width="2.84" height="7.33" transform="translate(41.07 132.31) rotate(-129.63)" style="fill:#e6e6e6;stroke:#000;stroke-miterlimit:10;stroke-width:0.5px"/><circle cx="52.23" cy="49.08" r="1.8" style="fill:#998675;stroke:#000;stroke-miterlimit:10;stroke-width:0.5px"/><polygon points="66.76 10.9 70.95 24.57 71.4 47.15 67.47 47.44 64.61 25.04 66.76 10.9" style="fill:#e6e6e6;stroke:#000;stroke-miterlimit:10;stroke-width:0.5px"/><line x1="67.68" y1="23.38" x2="69.44" y2="47.29" style="fill:none;stroke:#000;stroke-miterlimit:10;stroke-width:0.25px"/><rect x="67.99" y="65.11" width="7.76" height="2.52" transform="translate(-7.88 -11.19) rotate(-5.04)" style="fill:gray;stroke:#000;stroke-miterlimit:10;stroke-width:0.5px"/><rect x="70.8" y="67.66" width="2.84" height="7.33" transform="translate(-7.36 -12.27) rotate(-4.21)" style="fill:#e6e6e6;stroke:#000;stroke-miterlimit:10;stroke-width:0.5px"/><circle cx="70.13" cy="56.71" r="1.8" style="fill:#998675;stroke:#000;stroke-miterlimit:10;stroke-width:0.5px"/></svg>